<?xml version="1.0" encoding="UTF-8" standalone="no"?>
<svg
   xmlns:dc="http://purl.org/dc/elements/1.1/"
   xmlns:cc="http://creativecommons.org/ns#"
   xmlns:rdf="http://www.w3.org/1999/02/22-rdf-syntax-ns#"
   xmlns:svg="http://www.w3.org/2000/svg"
   xmlns="http://www.w3.org/2000/svg"
   xmlns:sodipodi="http://sodipodi.sourceforge.net/DTD/sodipodi-0.dtd"
   xmlns:inkscape="http://www.inkscape.org/namespaces/inkscape"
   version="1.1"
   id="Content"
   x="0px"
   y="0px"
   width="36px"
   height="36px"
   viewBox="0 0 192 192"
   enable-background="new 0 0 192 192"
   xml:space="preserve"
   sodipodi:docname="google-keep.svg"
   inkscape:version="0.92.4 5da689c313, 2019-01-14"><metadata
   id="metadata85"><rdf:RDF><cc:Work
       rdf:about=""><dc:format>image/svg+xml</dc:format><dc:type
         rdf:resource="http://purl.org/dc/dcmitype/StillImage" /><dc:title>Google Keep</dc:title></cc:Work></rdf:RDF></metadata><sodipodi:namedview
   pagecolor="#ffffff"
   bordercolor="#666666"
   borderopacity="1"
   objecttolerance="10"
   gridtolerance="10"
   guidetolerance="10"
   inkscape:pageopacity="0"
   inkscape:pageshadow="2"
   inkscape:window-width="1307"
   inkscape:window-height="728"
   id="namedview83"
   showgrid="false"
   inkscape:showpageshadow="false"
   inkscape:zoom="1.2291667"
   inkscape:cx="-55.754009"
   inkscape:cy="92.710002"
   inkscape:window-x="59"
   inkscape:window-y="0"
   inkscape:window-maximized="1"
   inkscape:current-layer="Content" />
	<defs
   id="defs20">
		<clipPath
   id="clip-path">
			<path
   d="M128,172H32a12.03527,12.03527,0,0,1-12-12V32A12.03528,12.03528,0,0,1,32,20H160a12.03527,12.03527,0,0,1,12,12v96Z"
   style="fill: none"
   id="path2" />
		</clipPath>
		<linearGradient
   id="linear-gradient"
   x1="68.57805"
   y1="125.87695"
   x2="150.79266"
   y2="43.66235"
   gradientTransform="matrix(1,0,0,-1,0,192)"
   gradientUnits="userSpaceOnUse">
			<stop
   offset="0"
   stop-color="#bf360c"
   stop-opacity="0.1"
   id="stop5" />
			<stop
   offset="1"
   stop-color="#bf360c"
   stop-opacity="0.02"
   id="stop7" />
		</linearGradient>
		<filter
   id="material-drop-shadow"
   x="-24"
   y="-24"
   width="192"
   height="192">
			<feGaussianBlur
   result="blur"
   stdDeviation="4"
   in="SourceGraphic"
   id="feGaussianBlur10" />
			<feOffset
   result="offsetBlurredGraphic"
   dx="4"
   dy="4"
   in="blur"
   id="feOffset12" />
		</filter>
		<radialGradient
   id="radial-gradient"
   cx="24.5854"
   cy="167.1055"
   r="177.0986"
   gradientTransform="matrix(1,0,0,-1,0,192)"
   gradientUnits="userSpaceOnUse">
			<stop
   offset="0"
   stop-color="#fff"
   stop-opacity="0.1"
   id="stop15" />
			<stop
   offset="1"
   stop-color="#fff"
   stop-opacity="0"
   id="stop17" />
		</radialGradient>
	</defs>
	<title
   id="title22">Google Keep</title>
	<g
   id="g80"
   transform="matrix(1.2639007,0,0,1.2632207,-25.229784,-25.232797)">
		<g
   id="g76">
			<g
   id="g72">
				<g
   clip-path="url(#clip-path)"
   id="g26">
					<path
   d="M 128,172 H 32 A 12.03527,12.03527 0 0 1 20,160 V 32 A 12.03528,12.03528 0 0 1 32,20 h 128 a 12.03527,12.03527 0 0 1 12,12 v 96 l -26,18 z"
   style="fill:#f4b400"
   id="path24"
   inkscape:connector-curvature="0" />
				</g>
				<g
   clip-path="url(#clip-path)"
   id="g30">
					<path
   d="M 172,105.09 121.46,54.55 A 35.99174,35.99174 0 1 0 70.54,105.43 L 78,112.91 V 140 l 32,32 h 62 z"
   style="fill:url(#linear-gradient)"
   id="path28"
   inkscape:connector-curvature="0" />
				</g>
				<g
   clip-path="url(#clip-path)"
   id="g40">
					<g
   id="g38">
						<g
   style="opacity:0.2;filter:url(#material-drop-shadow)"
   id="g34">
							<path
   d="m 128,172 v -32 a 11.99669,11.99669 0 0 1 12,-12 h 32 z"
   style="fill:#3e2723"
   id="path32"
   inkscape:connector-curvature="0" />
						</g>
						<path
   d="m 128,172 v -32 a 11.99669,11.99669 0 0 1 12,-12 h 32 z"
   style="fill:#fada80"
   id="path36"
   inkscape:connector-curvature="0" />
					</g>
				</g>
				<g
   clip-path="url(#clip-path)"
   id="g44">
					<path
   d="m 140,129 a 11.99669,11.99669 0 0 0 -12,12 v -1 a 11.99669,11.99669 0 0 1 12,-12 h 32 v 1 z"
   style="fill:#ffffff;fill-opacity:0.2"
   id="path42"
   inkscape:connector-curvature="0" />
				</g>
				<g
   clip-path="url(#clip-path)"
   id="g58">
					<g
   id="g56">
						<g
   id="g50">
							<path
   d="M 96,44 A 35.99562,35.99562 0 0 0 78,111.17 V 140 h 8 v 8 h 22 v -8 h 8 V 109.93 A 35.99788,35.99788 0 0 0 96,44 Z m 12,88 H 86 v -8 h 22 z m 0,-26.71 V 116 H 86 v -9.85 a 28.00589,28.00589 0 1 1 22,-0.86 z"
   style="opacity:0.1;fill:#3e2723;filter:url(#material-drop-shadow)"
   id="path46"
   inkscape:connector-curvature="0" />
							<path
   d="M 96,44 A 35.99562,35.99562 0 0 0 78,111.17 V 140 h 8 v 8 h 22 v -8 h 8 V 109.93 A 35.99788,35.99788 0 0 0 96,44 Z m 12,88 H 86 v -8 h 22 z m 0,-26.71 V 116 H 86 v -9.85 a 28.00589,28.00589 0 1 1 22,-0.86 z"
   style="fill:#f1f1f1"
   id="path48"
   inkscape:connector-curvature="0" />
						</g>
						<path
   d="m 86,133 h 22 v -1 H 86 Z m 0,-16 h 22 v -1 H 86 Z m 0,-10.85 A 28.02376,28.02376 0 0 1 68.02,80.4 c 0,0.2 -0.02,0.4 -0.02,0.61 a 28.05269,28.05269 0 0 0 18,26.15 z m 22,-0.86 v 1 A 28.03662,28.03662 0 0 0 124,81 c 0,-0.2 -0.01,-0.39 -0.02,-0.59 A 28.00651,28.00651 0 0 1 108,105.29 Z M 96,44 A 36.00288,36.00288 0 0 0 60,80 c 0,0.14 0.01,0.28 0.01,0.43 a 35.99435,35.99435 0 0 1 71.98,0.01 C 131.99,80.29 132,80.15 132,80 A 36.00288,36.00288 0 0 0 96,44 Z"
   style="fill:#ffffff;fill-opacity:0.4"
   id="path52"
   inkscape:connector-curvature="0" />
						<path
   d="M 78,111.17 A 35.98941,35.98941 0 0 1 60.01,80.43 C 60.01,80.62 60,80.81 60,81 a 35.96459,35.96459 0 0 0 18,31.17 z M 86,125 h 22 v -1 H 86 Z M 96,53 a 28.01749,28.01749 0 0 1 27.98,27.41 c 0,-0.14 0.02,-0.27 0.02,-0.41 a 28,28 0 1 0 -56,0 c 0,0.13 0.01,0.26 0.02,0.39 A 28.01365,28.01365 0 0 1 96,53 Z m 12,88 h 8 v -1 h -8 z M 131.99,80.44 A 35.9347,35.9347 0 0 1 116,109.93 v 1 A 35.95108,35.95108 0 0 0 132,81 c 0,-0.19 -0.01,-0.37 -0.01,-0.56 z M 86,140 h -8 v 1 h 8 z m 0,9 h 22 v -1 H 86 Z"
   style="fill:#bf360c;fill-opacity:0.1"
   id="path54"
   inkscape:connector-curvature="0" />
					</g>
				</g>
				<g
   clip-path="url(#clip-path)"
   id="g62">
					<path
   d="M 161.14,20 H 30.86 A 10.8572,10.8572 0 0 0 20,30.86 v 130.29 a 10.8636,10.8636 0 0 0 10.86,10.86 H 128 l 44,-44 V 30.86 A 10.8572,10.8572 0 0 0 161.14,20 Z"
   style="fill:none"
   id="path60"
   inkscape:connector-curvature="0" />
				</g>
				<g
   clip-path="url(#clip-path)"
   id="g70">
					<g
   id="g68">
						<path
   d="M 160,20 H 32 A 12.03528,12.03528 0 0 0 20,32 v 1 A 12.03528,12.03528 0 0 1 32,21 h 128 a 12.03527,12.03527 0 0 1 12,12 V 32 A 12.03527,12.03527 0 0 0 160,20 Z"
   style="fill:#ffffff;fill-opacity:0.2"
   id="path64"
   inkscape:connector-curvature="0" />
						<path
   d="M 32,171 A 12.03527,12.03527 0 0 1 20,159 v 1 a 12.03527,12.03527 0 0 0 12,12 h 96 l 44,-44 h -1 l -43,43 z"
   style="fill:#bf360c;fill-opacity:0.1"
   id="path66"
   inkscape:connector-curvature="0" />
					</g>
				</g>
			</g>
			<path
   d="M 128,172 H 32 A 12.03527,12.03527 0 0 1 20,160 V 32 A 12.03528,12.03528 0 0 1 32,20 h 128 a 12.03527,12.03527 0 0 1 12,12 v 96 z"
   style="fill:url(#radial-gradient)"
   id="path74"
   inkscape:connector-curvature="0" />
		</g>
		<rect
   width="192"
   height="192"
   style="fill:none"
   id="rect78"
   x="0"
   y="0" />
	</g>
</svg>